<?xml version="1.0" encoding="UTF-8" standalone="no"?>
<!DOCTYPE svg PUBLIC "-//W3C//DTD SVG 1.1//EN" "http://www.w3.org/Graphics/SVG/1.1/DTD/svg11.dtd">
<svg width="100%" height="100%" viewBox="0 0 100 100" version="1.1" xmlns="http://www.w3.org/2000/svg" xmlns:xlink="http://www.w3.org/1999/xlink" xml:space="preserve" xmlns:serif="http://www.serif.com/" style="fill-rule:evenodd;clip-rule:evenodd;stroke-linejoin:round;stroke-miterlimit:2;">
    <g transform="matrix(1,0,0,1,3.5,-7)">
        <path d="M46.5,25C63.885,25 78,39.339 78,57C78,74.661 63.885,89 46.5,89C29.115,89 15,74.661 15,57C15,39.339 29.115,25 46.5,25ZM46.5,33C33.495,33 23,43.788 23,57C23,70.212 33.495,81 46.5,81C59.505,81 70,70.212 70,57C70,43.788 59.505,33 46.5,33Z"/>
    </g>
</svg>
